<svg width="128" height="128" viewBox="0 0 128 128" xmlns="http://www.w3.org/2000/svg">
  <defs>
    <linearGradient id="bodyGrad" x1="24" y1="10" x2="106" y2="122" gradientUnits="userSpaceOnUse">
      <stop offset="0" stop-color="#F0FBF4"/>
      <stop offset="0.3" stop-color="#B7E0C5"/>
      <stop offset="0.68" stop-color="#6BAC81"/>
      <stop offset="1" stop-color="#2D6946"/>
    </linearGradient>

    <linearGradient id="faceGrad" x1="40" y1="18" x2="90" y2="108" gradientUnits="userSpaceOnUse">
      <stop offset="0" stop-color="#E8F6EC"/>
      <stop offset="0.28" stop-color="#D8F1E0"/>
      <stop offset="0.62" stop-color="#95CCAB"/>
      <stop offset="1" stop-color="#5F8E73"/>
    </linearGradient>

    <linearGradient id="leftSide" x1="16" y1="44" x2="42" y2="118" gradientUnits="userSpaceOnUse">
      <stop offset="0" stop-color="#7DB18D"/>
      <stop offset="1" stop-color="#3E694E"/>
    </linearGradient>

    <linearGradient id="rightSide" x1="86" y1="24" x2="118" y2="118" gradientUnits="userSpaceOnUse">
      <stop offset="0" stop-color="#97C4A2"/>
      <stop offset="1" stop-color="#335740"/>
    </linearGradient>

    <clipPath id="rockClip">
      <path d="M49 8L42 15L36 25L32 37L30 51L32 65L29 79L24 92L19 103L18 111L24 118L36 123L52 126L71 126L89 123L103 118L111 111L114 102L111 92L107 81L104 67L102 52L98 39L94 27L86 17L76 10L64 7L55 6L49 8Z"/>
    </clipPath>

    <filter id="shadow" x="6" y="4" width="118" height="128" filterUnits="userSpaceOnUse">
      <feDropShadow dx="0" dy="6" stdDeviation="4.8" flood-color="#2A5B3E" flood-opacity="0.24"/>
    </filter>

    <filter id="grain" x="0" y="0" width="128" height="128" filterUnits="userSpaceOnUse">
      <feTurbulence type="fractalNoise" baseFrequency="0.75" numOctaves="2" seed="6" result="noise"/>
      <feColorMatrix in="noise" type="matrix"
        values="0 0 0 0 0.23
                0 0 0 0 0.30
                0 0 0 0 0.23
                0 0 0 0.12 0"/>
    </filter>
  </defs>

  <g filter="url(#shadow)">
    <path d="M49 8L42 15L36 25L32 37L30 51L32 65L29 79L24 92L19 103L18 111L24 118L36 123L52 126L71 126L89 123L103 118L111 111L114 102L111 92L107 81L104 67L102 52L98 39L94 27L86 17L76 10L64 7L55 6L49 8Z" fill="url(#bodyGrad)"/>

    <path d="M49 12L41 21L37 33L36 49L38 64L35 79L31 93L27 107L24 118L35 123L50 125L52 109L50 93L53 77L55 61L55 44L57 28L49 12Z" fill="url(#leftSide)"/>

    <path d="M78 12L86 22L91 34L95 48L97 63L99 78L103 92L109 107L111 113L101 119L88 123L74 125L73 110L74 93L75 76L76 59L76 42L78 27L78 12Z" fill="url(#rightSide)"/>

    <path d="M50 12L60 10L72 13L81 20L87 31L91 45L93 59L92 74L87 88L80 100L71 109L60 114L49 113L41 106L39 94L41 80L44 66L43 51L43 35L46 23L50 12Z" fill="url(#faceGrad)"/>
    <path d="M47 17L61 12L77 16L86 26L82 36L69 39L56 36L48 29L47 17Z" fill="#2A5C43" fill-opacity="0.05"/>
    <path d="M43 49L54 47L68 50L84 47L92 52L92 63L86 72L72 76L57 74L45 65L43 49Z" fill="#D5ECD9" fill-opacity="0.14"/>
    <path d="M45 66L57 74L72 76L86 72L84 84L78 95L69 104L58 108L47 103L41 91L45 66Z" fill="#80B58E" fill-opacity="0.12"/>

    <g clip-path="url(#rockClip)">
      <rect x="18" y="8" width="96" height="118" filter="url(#grain)" opacity="0.75"/>
    </g>

    <path d="M49 8L42 15L36 25L32 37L30 51L32 65L29 79L24 92L19 103L18 111L24 118L36 123L52 126L71 126L89 123L103 118L111 111L114 102L111 92L107 81L104 67L102 52L98 39L94 27L86 17L76 10L64 7L55 6L49 8Z" fill="none" stroke="#4E8060" stroke-width="1.15" stroke-linejoin="round"/>
  </g>
</svg>
